<?xml version="1.0" standalone="no"?>
<!DOCTYPE svg PUBLIC "-//W3C//DTD SVG 20010904//EN"
 "http://www.w3.org/TR/2001/REC-SVG-20010904/DTD/svg10.dtd">
<svg version="1.0" xmlns="http://www.w3.org/2000/svg"
 width="1024.000000pt" height="1024.000000pt" viewBox="0 0 1024.000000 1024.000000"
 preserveAspectRatio="xMidYMid meet">
<metadata>
Created by potrace 1.14, written by Peter Selinger 2001-2017
</metadata>
<g transform="translate(0.000000,1024.000000) scale(0.100000,-0.100000)"
fill="#000000" stroke="none">
<path d="M4678 9755 c-2 -2 -37 -5 -79 -9 -212 -18 -441 -118 -646 -281 -68
-55 -266 -254 -308 -310 -17 -22 -32 -42 -35 -45 -14 -13 -118 -158 -130 -180
-7 -14 -16 -27 -20 -30 -4 -3 -33 -50 -65 -105 -32 -55 -65 -108 -73 -117 -8
-10 -12 -18 -7 -18 4 0 2 -7 -5 -15 -49 -59 -244 -503 -265 -605 -1 -3 -9 -30
-19 -60 -9 -30 -20 -66 -22 -80 -3 -14 -11 -50 -19 -80 -17 -66 -21 -91 -36
-198 -7 -45 -17 -86 -23 -90 -9 -7 -62 -25 -106 -37 -44 -12 -117 -33 -210
-62 -110 -33 -160 -48 -315 -95 -38 -11 -79 -24 -90 -28 -11 -4 -87 -31 -170
-60 -82 -29 -166 -61 -186 -71 -67 -34 -90 -92 -115 -291 -8 -68 -16 -134 -19
-148 -2 -14 -6 -50 -10 -80 -4 -30 -8 -66 -10 -80 -2 -14 -7 -54 -10 -90 -3
-36 -8 -72 -10 -80 -2 -8 -6 -40 -10 -70 -3 -30 -7 -66 -9 -80 -4 -23 -12 -83
-21 -155 -2 -16 -9 -64 -14 -105 -6 -41 -13 -102 -17 -135 -3 -33 -7 -71 -10
-85 -7 -44 -63 -473 -69 -535 -4 -33 -8 -67 -10 -75 -2 -8 -7 -40 -11 -70 -3
-30 -8 -66 -10 -80 -2 -14 -6 -50 -9 -80 -3 -30 -8 -62 -10 -70 -2 -8 -7 -37
-9 -65 -5 -51 -13 -111 -21 -155 -3 -14 -7 -50 -10 -80 -3 -30 -10 -86 -15
-125 -6 -38 -12 -83 -14 -100 -5 -36 -26 -190 -31 -225 -2 -14 -6 -52 -10 -85
-4 -32 -9 -68 -11 -79 -2 -11 -6 -44 -9 -74 -3 -30 -7 -67 -9 -81 -8 -51 -16
-107 -21 -161 -3 -30 -8 -66 -10 -80 -2 -14 -7 -43 -9 -65 -3 -22 -8 -59 -11
-82 -3 -23 -7 -55 -9 -70 -6 -43 -16 -114 -22 -153 -6 -41 -11 -85 -19 -160
-4 -30 -10 -80 -15 -110 -5 -30 -11 -80 -15 -111 -3 -31 -7 -65 -9 -75 -2 -11
-7 -44 -10 -74 -4 -30 -8 -66 -11 -80 -2 -14 -6 -45 -9 -70 -3 -25 -14 -110
-25 -190 -11 -80 -22 -167 -26 -195 -3 -27 -7 -66 -10 -85 -3 -19 -7 -57 -10
-85 -3 -27 -8 -61 -10 -75 -6 -33 -12 -72 -20 -140 -4 -30 -9 -63 -10 -72 -2
-9 -6 -45 -10 -80 -3 -35 -10 -79 -14 -98 -7 -32 -6 -36 13 -37 22 0 80 -11
106 -18 8 -3 37 -7 63 -9 26 -3 51 -7 55 -10 4 -2 27 -7 52 -10 50 -7 82 -12
155 -26 46 -8 73 -13 160 -26 17 -3 53 -9 80 -14 28 -5 64 -12 80 -15 171 -29
214 -37 240 -41 28 -4 98 -16 170 -29 17 -2 41 -7 55 -10 14 -3 39 -7 55 -10
31 -5 50 -8 150 -25 33 -5 71 -12 85 -15 23 -4 174 -29 245 -41 57 -9 140 -24
165 -29 40 -9 93 -18 115 -20 11 -1 36 -5 55 -8 19 -4 49 -9 65 -12 17 -3 71
-12 120 -20 50 -9 101 -18 115 -20 14 -3 36 -7 50 -10 14 -3 41 -7 60 -10 68
-10 155 -25 180 -30 24 -5 194 -34 235 -40 25 -4 312 -54 345 -60 14 -3 133
-23 265 -45 132 -23 251 -43 265 -46 14 -2 117 -20 230 -40 113 -19 216 -37
230 -39 14 -3 66 -12 115 -20 50 -8 101 -17 115 -19 14 -3 52 -9 85 -15 33 -6
74 -13 90 -16 47 -8 326 -55 360 -61 17 -2 41 -6 55 -9 14 -3 39 -7 55 -9 17
-3 134 -23 260 -46 127 -22 238 -40 248 -40 16 0 17 201 17 4090 l0 4090 -49
0 c-27 0 -86 -11 -132 -25 -190 -57 -167 -62 -213 47 -49 118 -162 319 -238
425 -128 179 -321 314 -505 354 -78 17 -86 18 -179 19 l-81 2 -76 72 c-113
108 -227 165 -367 181 -51 6 -169 13 -172 10z m151 -321 c29 -9 69 -24 88 -34
l35 -19 -43 -22 c-109 -54 -282 -199 -365 -304 -21 -27 -42 -52 -45 -55 -10
-9 -129 -188 -160 -243 -126 -217 -241 -522 -299 -787 -12 -52 -24 -98 -28
-101 -4 -3 -34 -14 -67 -24 -101 -30 -218 -66 -260 -80 -22 -7 -114 -36 -205
-65 -91 -28 -184 -57 -206 -65 l-41 -13 18 72 c10 39 20 82 23 96 18 100 140
419 222 582 135 268 357 590 517 747 85 83 233 201 254 201 6 0 13 4 15 8 5
14 134 71 210 93 40 11 100 23 133 26 33 3 61 7 63 8 6 6 88 -7 141 -21z m761
-306 c78 -38 76 -36 160 -118 69 -67 138 -165 183 -261 31 -65 97 -239 97
-256 0 -7 -12 -16 -27 -19 -16 -4 -113 -33 -218 -64 -104 -31 -191 -56 -193
-54 -2 1 -5 44 -7 96 -3 99 -14 237 -21 278 -2 14 -9 52 -14 85 -11 63 -72
307 -85 339 -7 16 -4 18 26 11 19 -3 63 -20 99 -37z m-382 -153 c22 -75 25
-87 48 -210 22 -119 24 -145 31 -331 l6 -172 -59 -16 c-83 -24 -262 -79 -449
-139 -88 -28 -164 -52 -170 -53 -5 -2 -32 -10 -60 -18 -145 -42 -190 -54 -193
-51 -6 5 36 163 59 225 90 239 141 343 242 495 101 151 182 242 301 333 81 63
75 59 125 91 l44 29 27 -57 c15 -31 36 -87 48 -126z m-243 -2120 c44 -4 82 -8
85 -10 3 -2 28 -6 55 -9 103 -14 255 -58 255 -75 0 -3 -9 -37 -20 -76 -27 -94
-81 -290 -180 -645 -100 -364 -94 -346 -124 -327 -50 33 -227 79 -366 95 -123
14 -351 5 -445 -17 -22 -6 -41 -10 -43 -10 -13 1 -121 -46 -154 -67 -62 -39
-164 -145 -183 -190 -36 -86 -39 -218 -6 -283 29 -56 32 -60 116 -146 76 -79
262 -216 432 -319 280 -169 415 -291 571 -515 73 -103 163 -295 178 -376 3
-17 10 -50 15 -74 28 -128 33 -484 8 -586 -4 -16 -10 -50 -13 -74 -12 -95 -69
-270 -123 -376 -24 -49 -82 -145 -93 -155 -3 -3 -18 -24 -34 -48 -30 -44 -145
-166 -206 -217 -42 -36 -162 -117 -207 -139 -74 -37 -210 -87 -286 -105 -201
-47 -476 -48 -727 0 -196 37 -502 147 -673 242 -57 33 -233 174 -249 201 -3 6
14 99 38 206 25 107 65 287 91 400 25 113 48 208 52 212 3 4 53 -24 111 -61
203 -131 397 -222 556 -260 44 -10 86 -19 94 -20 244 -17 374 34 458 182 98
173 41 387 -158 588 -121 123 -176 164 -380 289 -103 63 -215 167 -298 275
-26 33 -50 62 -54 63 -4 2 -8 8 -8 14 0 5 -13 28 -28 51 -67 99 -130 271 -147
397 -32 250 -26 455 20 651 14 57 27 115 30 128 4 13 14 43 24 65 10 23 22 52
26 66 14 49 138 270 182 325 5 6 33 42 63 80 127 164 314 319 510 423 62 33
268 120 300 127 8 2 60 15 115 29 55 14 120 28 145 31 24 4 47 8 50 10 13 8
131 21 275 31 55 3 101 7 102 8 5 4 172 -2 248 -9z"/>
<path d="M6859 8574 c0 -10 -1 -1829 -2 -4042 -1 -2676 1 -4022 8 -4022 6 0
64 13 130 29 66 17 131 32 145 35 14 3 81 19 150 36 153 38 156 39 178 44 32
7 107 26 142 36 44 13 482 119 512 124 13 3 23 5 23 6 0 1 7 3 15 5 8 1 110
26 225 55 331 81 499 122 515 125 8 2 27 8 41 13 15 6 29 9 31 7 2 -2 26 2 53
11 28 8 66 17 85 20 19 3 44 11 55 17 11 6 21 10 23 9 1 -1 7 -2 13 -2 8 0 10
14 5 42 -3 24 -11 75 -16 113 -6 39 -13 81 -15 95 -2 14 -16 103 -30 198 -14
95 -27 185 -29 200 -3 15 -12 77 -21 137 -8 61 -18 126 -21 145 -3 19 -18 125
-35 235 -16 110 -31 211 -34 225 -2 14 -7 45 -10 70 -3 25 -10 70 -15 100 -5
30 -12 73 -15 95 -16 111 -36 244 -40 272 -3 18 -7 48 -10 65 -5 34 -41 273
-71 473 -9 61 -17 119 -19 130 -7 50 -16 113 -22 150 -3 22 -7 50 -9 63 -2 22
-11 81 -39 257 -8 50 -17 113 -20 140 -3 28 -8 57 -10 65 -2 8 -7 38 -11 65
-3 28 -7 57 -9 65 -1 8 -6 40 -10 70 -4 30 -9 64 -11 75 -2 11 -13 83 -24 160
-12 77 -23 152 -25 168 -10 54 -14 83 -20 137 -4 30 -8 57 -10 60 -2 3 -6 30
-10 60 -3 30 -10 80 -15 110 -5 30 -12 75 -15 100 -3 25 -10 70 -15 100 -5 30
-12 75 -15 100 -3 25 -8 56 -10 70 -6 33 -12 75 -20 130 -3 25 -11 74 -16 110
-5 36 -12 76 -14 90 -14 94 -28 187 -40 265 -8 50 -17 110 -20 135 -3 25 -8
56 -10 70 -6 32 -12 74 -20 130 -3 25 -15 102 -25 171 -18 116 -24 153 -35
234 -2 17 -7 48 -10 70 -9 57 -13 84 -20 135 -3 25 -10 68 -15 95 -5 28 -12
73 -15 100 -3 28 -8 57 -10 65 -2 8 -6 33 -9 55 -3 22 -14 103 -26 180 -11 77
-22 156 -25 175 -19 130 -21 132 -140 136 -38 1 -178 5 -310 9 -132 4 -260 8
-284 9 -42 1 -50 6 -137 91 -51 49 -173 167 -271 262 -98 94 -181 175 -185
179 -5 4 -8 -1 -9 -12z"/>
</g>
</svg>
